# Blender v2.80 (sub 75) OBJ File: 'border.blend'
# www.blender.org
o Cube.029_Cube.030
v -0.150000 0.000000 4.000000
v -0.150000 0.100000 4.000000
v -0.150000 0.000000 2.000000
v -0.150000 0.100000 2.000000
v 0.150000 0.000000 4.000000
v 0.150000 0.100000 4.000000
v 0.150000 0.000000 2.000000
v 0.150000 0.100000 2.000000
vt 0.003203 0.707807
vt 0.633436 0.998268
vt 0.002931 0.998010
vt 0.625000 0.250000
vt 0.375000 0.500000
vt 0.375000 0.250000
vt 0.002747 0.707733
vt 0.633295 0.997997
vt 0.003279 0.998504
vt 0.625000 0.750000
vt 0.375000 1.000000
vt 0.375000 0.750000
vt 0.125000 0.750000
vt 0.125000 0.500000
vt 0.000856 0.706059
vt 0.636963 0.998401
vt 0.001213 0.998740
vt 0.633708 0.708065
vt 0.625000 0.500000
vt 0.632763 0.707226
vt 0.625000 1.000000
vt 0.636606 0.705720
vn -1.0000 0.0000 0.0000
vn 0.0000 0.0000 -1.0000
vn 1.0000 0.0000 0.0000
vn 0.0000 0.0000 1.0000
vn 0.0000 -1.0000 0.0000
vn 0.0000 1.0000 0.0000
s off
f 2/1/1 3/2/1 1/3/1
f 4/4/2 7/5/2 3/6/2
f 8/7/3 5/8/3 7/9/3
f 6/10/4 1/11/4 5/12/4
f 7/5/5 1/13/5 3/14/5
f 4/15/6 6/16/6 8/17/6
f 2/1/1 4/18/1 3/2/1
f 4/4/2 8/19/2 7/5/2
f 8/7/3 6/20/3 5/8/3
f 6/10/4 2/21/4 1/11/4
f 7/5/5 5/12/5 1/13/5
f 4/15/6 2/22/6 6/16/6
o Cube.028_Cube.029
v -0.150000 0.000000 2.000000
v -0.150000 0.100000 2.000000
v -0.150000 0.000000 0.000000
v -0.150000 0.100000 0.000000
v 0.150000 0.000000 2.000000
v 0.150000 0.100000 2.000000
v 0.150000 0.000000 0.000000
v 0.150000 0.100000 0.000000
vt 0.003203 0.707807
vt 0.633436 0.998268
vt 0.002931 0.998010
vt 0.625000 0.250000
vt 0.375000 0.500000
vt 0.375000 0.250000
vt 0.002747 0.707733
vt 0.633295 0.997997
vt 0.003279 0.998504
vt 0.625000 0.750000
vt 0.375000 1.000000
vt 0.375000 0.750000
vt 0.125000 0.750000
vt 0.125000 0.500000
vt 0.000856 0.706059
vt 0.636963 0.998401
vt 0.001213 0.998740
vt 0.633708 0.708065
vt 0.625000 0.500000
vt 0.632763 0.707226
vt 0.625000 1.000000
vt 0.636606 0.705720
vn -1.0000 0.0000 0.0000
vn 0.0000 0.0000 -1.0000
vn 1.0000 0.0000 0.0000
vn 0.0000 0.0000 1.0000
vn 0.0000 -1.0000 0.0000
vn 0.0000 1.0000 0.0000
s off
f 10/23/7 11/24/7 9/25/7
f 12/26/8 15/27/8 11/28/8
f 16/29/9 13/30/9 15/31/9
f 14/32/10 9/33/10 13/34/10
f 15/27/11 9/35/11 11/36/11
f 12/37/12 14/38/12 16/39/12
f 10/23/7 12/40/7 11/24/7
f 12/26/8 16/41/8 15/27/8
f 16/29/9 14/42/9 13/30/9
f 14/32/10 10/43/10 9/33/10
f 15/27/11 13/34/11 9/35/11
f 12/37/12 10/44/12 14/38/12
o Cube.027_Cube.028
v -0.150000 0.000000 -2.000000
v -0.150000 0.100000 -2.000000
v -0.150000 0.000000 -4.000000
v -0.150000 0.100000 -4.000000
v 0.150000 0.000000 -2.000000
v 0.150000 0.100000 -2.000000
v 0.150000 0.000000 -4.000000
v 0.150000 0.100000 -4.000000
vt 0.003203 0.707807
vt 0.633436 0.998268
vt 0.002931 0.998010
vt 0.625000 0.250000
vt 0.375000 0.500000
vt 0.375000 0.250000
vt 0.002747 0.707733
vt 0.633295 0.997997
vt 0.003279 0.998504
vt 0.625000 0.750000
vt 0.375000 1.000000
vt 0.375000 0.750000
vt 0.125000 0.750000
vt 0.125000 0.500000
vt 0.000856 0.706059
vt 0.636963 0.998401
vt 0.001213 0.998740
vt 0.633708 0.708065
vt 0.625000 0.500000
vt 0.632763 0.707226
vt 0.625000 1.000000
vt 0.636606 0.705720
vn -1.0000 0.0000 0.0000
vn 0.0000 0.0000 -1.0000
vn 1.0000 0.0000 0.0000
vn 0.0000 0.0000 1.0000
vn 0.0000 -1.0000 0.0000
vn 0.0000 1.0000 0.0000
s off
f 18/45/13 19/46/13 17/47/13
f 20/48/14 23/49/14 19/50/14
f 24/51/15 21/52/15 23/53/15
f 22/54/16 17/55/16 21/56/16
f 23/49/17 17/57/17 19/58/17
f 20/59/18 22/60/18 24/61/18
f 18/45/13 20/62/13 19/46/13
f 20/48/14 24/63/14 23/49/14
f 24/51/15 22/64/15 21/52/15
f 22/54/16 18/65/16 17/55/16
f 23/49/17 21/56/17 17/57/17
f 20/59/18 18/66/18 22/60/18
o Cube.026_Cube.027
v -0.150000 0.000000 0.000000
v -0.150000 0.100000 0.000000
v -0.150000 0.000000 -2.000000
v -0.150000 0.100000 -2.000000
v 0.150000 0.000000 0.000000
v 0.150000 0.100000 0.000000
v 0.150000 0.000000 -2.000000
v 0.150000 0.100000 -2.000000
vt 0.003203 0.707807
vt 0.633436 0.998268
vt 0.002931 0.998010
vt 0.625000 0.250000
vt 0.375000 0.500000
vt 0.375000 0.250000
vt 0.002747 0.707733
vt 0.633295 0.997997
vt 0.003279 0.998504
vt 0.625000 0.750000
vt 0.375000 1.000000
vt 0.375000 0.750000
vt 0.125000 0.750000
vt 0.125000 0.500000
vt 0.000856 0.706059
vt 0.636963 0.998401
vt 0.001213 0.998740
vt 0.633708 0.708065
vt 0.625000 0.500000
vt 0.632763 0.707226
vt 0.625000 1.000000
vt 0.636606 0.705720
vn -1.0000 0.0000 0.0000
vn 0.0000 0.0000 -1.0000
vn 1.0000 0.0000 0.0000
vn 0.0000 0.0000 1.0000
vn 0.0000 -1.0000 0.0000
vn 0.0000 1.0000 0.0000
s off
f 26/67/19 27/68/19 25/69/19
f 28/70/20 31/71/20 27/72/20
f 32/73/21 29/74/21 31/75/21
f 30/76/22 25/77/22 29/78/22
f 31/71/23 25/79/23 27/80/23
f 28/81/24 30/82/24 32/83/24
f 26/67/19 28/84/19 27/68/19
f 28/70/20 32/85/20 31/71/20
f 32/73/21 30/86/21 29/74/21
f 30/76/22 26/87/22 25/77/22
f 31/71/23 29/78/23 25/79/23
f 28/81/24 26/88/24 30/82/24
o Cube.000
v -0.150000 0.000000 -4.000000
v -0.150000 0.100000 -4.000000
v -0.150000 0.000000 -4.450000
v -0.150000 0.100000 -4.450000
v 0.150000 0.000000 -4.000000
v 0.150000 0.100000 -4.000000
v 0.150000 0.000000 -4.450000
v 0.150000 0.100000 -4.450000
vt 0.003203 0.707807
vt 0.633436 0.998268
vt 0.002931 0.998010
vt 0.625000 0.250000
vt 0.375000 0.500000
vt 0.375000 0.250000
vt 0.002747 0.707733
vt 0.633295 0.997997
vt 0.003279 0.998504
vt 0.625000 0.750000
vt 0.375000 1.000000
vt 0.375000 0.750000
vt 0.125000 0.750000
vt 0.125000 0.500000
vt 0.000856 0.706059
vt 0.636963 0.998401
vt 0.001213 0.998740
vt 0.633708 0.708065
vt 0.625000 0.500000
vt 0.632763 0.707226
vt 0.625000 1.000000
vt 0.636606 0.705720
vn -1.0000 0.0000 0.0000
vn 0.0000 0.0000 -1.0000
vn 1.0000 0.0000 0.0000
vn 0.0000 0.0000 1.0000
vn 0.0000 -1.0000 0.0000
vn 0.0000 1.0000 0.0000
s off
f 34/89/25 35/90/25 33/91/25
f 36/92/26 39/93/26 35/94/26
f 40/95/27 37/96/27 39/97/27
f 38/98/28 33/99/28 37/100/28
f 39/93/29 33/101/29 35/102/29
f 36/103/30 38/104/30 40/105/30
f 34/89/25 36/106/25 35/90/25
f 36/92/26 40/107/26 39/93/26
f 40/95/27 38/108/27 37/96/27
f 38/98/28 34/109/28 33/99/28
f 39/93/29 37/100/29 33/101/29
f 36/103/30 34/110/30 38/104/30
o Cube.001
v -0.150000 0.000000 4.450000
v -0.150000 0.100000 4.450000
v -0.150000 0.000000 4.000000
v -0.150000 0.100000 4.000000
v 0.150000 0.000000 4.450000
v 0.150000 0.100000 4.450000
v 0.150000 0.000000 4.000000
v 0.150000 0.100000 4.000000
vt 0.003203 0.707807
vt 0.633436 0.998268
vt 0.002931 0.998010
vt 0.625000 0.250000
vt 0.375000 0.500000
vt 0.375000 0.250000
vt 0.002747 0.707733
vt 0.633295 0.997997
vt 0.003279 0.998504
vt 0.625000 0.750000
vt 0.375000 1.000000
vt 0.375000 0.750000
vt 0.125000 0.750000
vt 0.125000 0.500000
vt 0.000856 0.706059
vt 0.636963 0.998401
vt 0.001213 0.998740
vt 0.633708 0.708065
vt 0.625000 0.500000
vt 0.632763 0.707226
vt 0.625000 1.000000
vt 0.636606 0.705720
vn -1.0000 0.0000 0.0000
vn 0.0000 0.0000 -1.0000
vn 1.0000 0.0000 0.0000
vn 0.0000 0.0000 1.0000
vn 0.0000 -1.0000 0.0000
vn 0.0000 1.0000 0.0000
s off
f 42/111/31 43/112/31 41/113/31
f 44/114/32 47/115/32 43/116/32
f 48/117/33 45/118/33 47/119/33
f 46/120/34 41/121/34 45/122/34
f 47/115/35 41/123/35 43/124/35
f 44/125/36 46/126/36 48/127/36
f 42/111/31 44/128/31 43/112/31
f 44/114/32 48/129/32 47/115/32
f 48/117/33 46/130/33 45/118/33
f 46/120/34 42/131/34 41/121/34
f 47/115/35 45/122/35 41/123/35
f 44/125/36 42/132/36 46/126/36
